<?xml version="1.0" encoding="UTF-8" standalone="no"?>
<!-- Created with Inkscape (http://www.inkscape.org/) -->

<svg
   width="49.324005mm"
   height="20.288446mm"
   viewBox="0 0 49.324005 20.288446"
   version="1.1"
   id="svg1"
   xml:space="preserve"
   xmlns="http://www.w3.org/2000/svg"
   xmlns:svg="http://www.w3.org/2000/svg"><defs
     id="defs1" /><g
     id="layer1"
     transform="translate(-109.87407,-66.239074)"><path
       id="path10"
       style="fill:#000000"
       d="m 119.50586,66.259766 c -3.93277,0.189969 -7.64163,2.81928 -8.99565,6.53852 -0.63586,1.69108 -0.77013,3.330103 -0.51332,5.154662 0.54365,3.617091 3.21037,6.786884 6.67724,7.953119 2.60416,0.981021 5.63212,0.768326 8.03681,-0.609192 1.25782,-0.650317 2.42518,-1.46459 3.50781,-2.375 -0.69725,-0.975489 -1.37455,-1.965923 -2.06445,-2.947266 -1.99545,1.334177 -4.07433,3.09961 -6.63842,2.876458 -2.97707,-0.193851 -5.57855,-2.675953 -5.93619,-5.634448 -0.48204,-3.138325 1.72712,-6.38908 4.81572,-7.120984 2.44393,-0.707534 5.21554,0.276868 6.71221,2.326022 1.3157,1.661999 2.43437,3.467526 3.69767,5.169647 1.28888,1.784684 2.39233,3.75072 3.9712,5.2946 1.30082,0.920064 3.09038,1.179461 4.56531,0.537924 -3.56127,-4.912492 -6.7505,-10.116984 -10.69951,-14.735474 -1.89089,-1.774756 -4.57126,-2.593229 -7.13643,-2.428588 z m 29.13867,0.01953 c -3.00113,-0.02654 -5.50475,1.876241 -7.84961,3.513672 0.74915,0.938139 1.36906,1.972333 2.08594,2.935547 1.95812,-1.392471 4.08466,-3.077848 6.63898,-2.870969 3.90418,0.242498 7.06735,4.584251 5.76602,8.354071 -0.73648,2.569857 -3.18729,4.473837 -5.84777,4.611879 -2.40741,0.238267 -4.74083,-1.149948 -6.00739,-3.153352 -2.08159,-2.85828 -3.96691,-5.815958 -6.08609,-8.649094 -0.84,-1.23176 -2.2297,-2.063394 -3.73583,-2.078567 -0.64663,-0.02757 -1.30247,0.08934 -1.89394,0.354391 3.46312,4.873338 6.66302,9.954729 10.5058,14.544618 2.07217,2.050484 5.21101,2.957484 8.01178,2.615538 1.30575,-0.130802 2.87793,-0.679588 4.1022,-1.459531 3.21938,-1.990305 5.24853,-5.871261 4.8021,-9.661562 -0.31974,-3.436927 -2.67383,-6.740128 -5.9006,-8.143307 -1.43355,-0.657749 -3.01084,-1.01032 -4.59159,-0.913334 z" /></g></svg>
